<?xml version="1.0" encoding="UTF-8"?>
<svg xmlns="http://www.w3.org/2000/svg" xmlns:xlink="http://www.w3.org/1999/xlink" width="375pt" height="374.999991pt" viewBox="0 0 375 374.999991" version="1.2">
<defs>
<clipPath id="clip1">
  <path d="M 66 201.539062 L 327.386719 201.539062 L 327.386719 303.683594 L 66 303.683594 Z M 66 201.539062 "/>
</clipPath>
</defs>
<g id="surface1">
<path style=" stroke:none;fill-rule:nonzero;fill:rgb(31.369019%,31.369019%,31.369019%);fill-opacity:1;" d="M 214.953125 125.785156 L 210.160156 125.785156 L 212.558594 119 Z M 205.179688 139.886719 L 206.777344 135.363281 L 218.335938 135.363281 L 219.933594 139.886719 C 220.628906 141.851562 222.472656 143.082031 224.445312 143.082031 C 224.972656 143.082031 225.511719 142.992188 226.039062 142.804688 C 228.53125 141.921875 229.832031 139.1875 228.953125 136.691406 L 217.066406 103.042969 C 216.390625 101.128906 214.585938 99.851562 212.558594 99.851562 C 210.53125 99.851562 208.722656 101.128906 208.046875 103.042969 L 196.160156 136.691406 C 195.28125 139.1875 196.585938 141.921875 199.074219 142.804688 C 201.566406 143.6875 204.296875 142.378906 205.179688 139.886719 "/>
<path style=" stroke:none;fill-rule:nonzero;fill:rgb(31.369019%,31.369019%,31.369019%);fill-opacity:1;" d="M 268.410156 161.203125 C 271.054688 161.203125 273.191406 159.058594 273.191406 156.414062 C 273.191406 153.769531 271.054688 151.625 268.410156 151.625 L 250.347656 151.625 C 247.703125 151.625 245.5625 153.769531 245.5625 156.414062 L 245.5625 190.0625 C 245.5625 192.707031 247.703125 194.851562 250.347656 194.851562 L 268.410156 194.851562 C 271.054688 194.851562 273.191406 192.707031 273.191406 190.0625 C 273.191406 187.417969 271.054688 185.273438 268.410156 185.273438 L 255.128906 185.273438 L 255.128906 178.34375 L 265.890625 178.34375 C 268.53125 178.34375 270.671875 176.199219 270.671875 173.554688 C 270.671875 170.910156 268.53125 168.765625 265.890625 168.765625 L 255.128906 168.765625 L 255.128906 161.203125 L 268.410156 161.203125 "/>
<path style=" stroke:none;fill-rule:nonzero;fill:rgb(31.369019%,31.369019%,31.369019%);fill-opacity:1;" d="M 183.585938 143.078125 C 186.226562 143.078125 188.367188 140.933594 188.367188 138.289062 L 188.367188 109.429688 L 194.308594 109.429688 C 196.949219 109.429688 199.089844 107.28125 199.089844 104.640625 C 199.089844 101.996094 196.949219 99.851562 194.308594 99.851562 L 172.863281 99.851562 C 170.21875 99.851562 168.082031 101.996094 168.082031 104.640625 C 168.082031 107.28125 170.21875 109.429688 172.863281 109.429688 L 178.800781 109.429688 L 178.800781 138.289062 C 178.800781 140.933594 180.941406 143.078125 183.585938 143.078125 "/>
<path style=" stroke:none;fill-rule:nonzero;fill:rgb(31.369019%,31.369019%,31.369019%);fill-opacity:1;" d="M 179.988281 161.203125 C 185.328125 161.203125 188.648438 165.8125 188.648438 173.238281 C 188.648438 180.664062 185.328125 185.273438 179.988281 185.273438 C 174.644531 185.273438 171.324219 180.664062 171.324219 173.238281 C 171.324219 165.8125 174.644531 161.203125 179.988281 161.203125 Z M 179.988281 194.851562 C 190.71875 194.851562 198.214844 185.964844 198.214844 173.238281 C 198.214844 160.511719 190.71875 151.625 179.988281 151.625 C 169.257812 151.625 161.761719 160.511719 161.761719 173.238281 C 161.761719 185.964844 169.257812 194.851562 179.988281 194.851562 "/>
<path style=" stroke:none;fill-rule:nonzero;fill:rgb(31.369019%,31.369019%,31.369019%);fill-opacity:1;" d="M 234.898438 194.851562 C 237.539062 194.851562 239.679688 192.707031 239.679688 190.0625 L 239.679688 156.414062 C 239.679688 154.296875 238.292969 152.433594 236.273438 151.824219 C 234.25 151.214844 232.066406 152.011719 230.902344 153.773438 L 221.695312 167.75 L 212.480469 153.773438 C 211.320312 152.011719 209.136719 151.214844 207.113281 151.824219 C 205.089844 152.433594 203.707031 154.296875 203.707031 156.414062 L 203.707031 190.0625 C 203.707031 192.707031 205.847656 194.851562 208.488281 194.851562 C 211.132812 194.851562 213.273438 192.707031 213.273438 190.0625 L 213.273438 172.363281 L 217.699219 179.078125 C 218.585938 180.425781 220.085938 181.234375 221.695312 181.234375 C 223.300781 181.234375 224.800781 180.425781 225.683594 179.078125 L 230.113281 172.363281 L 230.113281 190.0625 C 230.113281 192.707031 232.253906 194.851562 234.898438 194.851562 "/>
<path style=" stroke:none;fill-rule:nonzero;fill:rgb(31.369019%,31.369019%,31.369019%);fill-opacity:1;" d="M 151.027344 194.851562 C 153.671875 194.851562 155.8125 192.707031 155.8125 190.0625 L 155.8125 156.414062 C 155.8125 153.769531 153.671875 151.625 151.027344 151.625 C 148.386719 151.625 146.246094 153.769531 146.246094 156.414062 L 146.246094 168.449219 L 133.964844 168.449219 L 133.964844 156.414062 C 133.964844 153.769531 131.824219 151.625 129.183594 151.625 C 126.539062 151.625 124.402344 153.769531 124.402344 156.414062 L 124.402344 190.0625 C 124.402344 192.707031 126.539062 194.851562 129.183594 194.851562 C 131.824219 194.851562 133.964844 192.707031 133.964844 190.0625 L 133.964844 178.027344 L 146.246094 178.027344 L 146.246094 190.0625 C 146.246094 192.707031 148.386719 194.851562 151.027344 194.851562 "/>
<path style=" stroke:none;fill-rule:nonzero;fill:rgb(31.369019%,31.369019%,31.369019%);fill-opacity:1;" d="M 247.425781 138.289062 L 247.425781 125.066406 L 258.097656 107.085938 C 259.449219 104.8125 258.703125 101.871094 256.433594 100.523438 C 254.160156 99.171875 251.226562 99.917969 249.875 102.191406 L 242.570312 114.5 L 234.953125 102.128906 C 233.570312 99.875 230.621094 99.175781 228.371094 100.5625 C 226.125 101.949219 225.425781 104.902344 226.8125 107.152344 L 237.863281 125.105469 L 237.863281 138.289062 C 237.863281 140.933594 240.003906 143.078125 242.644531 143.078125 C 245.289062 143.078125 247.425781 140.933594 247.425781 138.289062 "/>
<path style=" stroke:none;fill-rule:nonzero;fill:rgb(31.369019%,31.369019%,31.369019%);fill-opacity:1;" d="M 166.734375 129.984375 C 166.734375 123.671875 162.867188 119.359375 155.234375 117.164062 L 154.597656 116.980469 C 150.417969 115.769531 148.714844 114.601562 148.714844 112.945312 C 148.714844 111.28125 150.902344 109.429688 154.039062 109.429688 C 155.566406 109.429688 157.035156 109.894531 158.070312 110.703125 C 160.152344 112.335938 163.15625 111.972656 164.785156 109.890625 C 166.417969 107.804688 166.050781 104.796875 163.96875 103.167969 C 161.246094 101.027344 157.71875 99.851562 154.039062 99.851562 C 145.828125 99.851562 139.148438 105.722656 139.148438 112.945312 C 139.148438 122.480469 148.777344 125.265625 151.941406 126.183594 L 152.59375 126.371094 C 156.441406 127.476562 157.167969 128.492188 157.167969 129.984375 C 157.167969 131.644531 154.683594 133.5 151.351562 133.5 C 149.53125 133.5 147.828125 132.949219 146.675781 131.984375 C 144.652344 130.285156 141.632812 130.554688 139.9375 132.578125 C 138.242188 134.609375 138.511719 137.628906 140.535156 139.328125 C 143.421875 141.746094 147.265625 143.078125 151.351562 143.078125 C 159.835938 143.078125 166.734375 137.203125 166.734375 129.984375 "/>
<g clip-path="url(#clip1)" clip-rule="nonzero">
<path style=" stroke:none;fill-rule:nonzero;fill:rgb(31.369019%,31.369019%,31.369019%);fill-opacity:1;" d="M 104.515625 287.832031 C 103.738281 288.828125 102.617188 289.460938 101.367188 289.613281 L 88.230469 291.222656 C 86.980469 291.375 85.738281 291.03125 84.746094 290.253906 C 83.75 289.476562 83.117188 288.355469 82.964844 287.097656 L 75.601562 226.894531 C 75.285156 224.304688 77.132812 221.9375 79.722656 221.621094 L 92.855469 220.011719 C 93.050781 219.984375 93.246094 219.972656 93.441406 219.972656 C 94.488281 219.972656 95.503906 220.324219 96.34375 220.980469 C 97.339844 221.757812 97.972656 222.878906 98.125 224.136719 L 105.484375 284.339844 C 105.636719 285.59375 105.292969 286.835938 104.515625 287.832031 Z M 323.394531 208.722656 C 317.242188 202.121094 307.175781 206.007812 299.097656 210.132812 C 289.929688 214.808594 278.335938 222.609375 264.914062 231.640625 L 261.855469 233.695312 C 259.664062 235.167969 259.078125 238.144531 260.550781 240.339844 C 262.023438 242.535156 264.996094 243.121094 267.1875 241.644531 L 270.25 239.589844 C 283.414062 230.734375 294.785156 223.082031 303.441406 218.664062 C 314.066406 213.238281 316.191406 215.035156 316.398438 215.257812 C 317.523438 216.464844 317.941406 217.652344 317.785156 219.222656 C 317.339844 223.773438 311.765625 234.882812 279.441406 258.207031 C 240.925781 285.996094 221.878906 292.859375 212.683594 293.730469 C 199.585938 294.957031 188.238281 293.304688 172.21875 287.835938 C 166.503906 285.882812 161.398438 284.019531 156.605469 282.144531 C 156.582031 282.136719 156.554688 282.125 156.527344 282.117188 C 156.394531 282.058594 156.261719 282.007812 156.125 281.957031 L 155.820312 281.835938 C 155.332031 281.640625 154.839844 281.449219 154.355469 281.253906 C 154.324219 281.242188 154.292969 281.230469 154.257812 281.21875 C 142.207031 276.695312 127.546875 276.199219 114.175781 276.585938 L 108.117188 227.039062 C 113.246094 225.070312 118.628906 222.757812 124.476562 220.003906 C 133.347656 215.824219 144.046875 211.570312 156.324219 211.570312 C 156.480469 211.570312 156.632812 211.574219 156.789062 211.574219 C 165.632812 211.648438 174.75 216.609375 184.410156 221.855469 C 191.164062 225.527344 198.152344 229.324219 205.949219 232.09375 C 213.320312 234.714844 219.804688 236.808594 225.523438 238.65625 C 238.851562 242.957031 248.617188 246.109375 249.234375 249.769531 C 248.0625 250.703125 243.246094 252.625 231.128906 252.996094 C 221.035156 253.308594 210.191406 252.429688 203.925781 251.421875 C 194.128906 249.84375 172.160156 241.769531 171.941406 241.6875 C 169.460938 240.777344 166.710938 242.046875 165.800781 244.527344 C 164.886719 247.011719 166.15625 249.761719 168.636719 250.675781 C 169.574219 251.023438 191.695312 259.15625 202.40625 260.878906 C 206.347656 261.511719 216.660156 262.644531 227.367188 262.644531 C 238.589844 262.644531 250.253906 261.402344 255.464844 257.027344 C 258.191406 254.734375 258.800781 252.121094 258.828125 250.332031 C 259.007812 239.402344 247.507812 235.691406 228.457031 229.539062 C 222.800781 227.710938 216.386719 225.640625 209.144531 223.070312 C 202.054688 220.550781 195.40625 216.933594 188.972656 213.4375 C 178.238281 207.605469 168.097656 202.09375 156.871094 201.996094 C 142.386719 201.894531 129.777344 206.921875 120.40625 211.339844 C 115.21875 213.78125 110.421875 215.863281 105.863281 217.644531 C 103.09375 212.777344 97.589844 209.78125 91.695312 210.503906 L 78.5625 212.113281 C 70.738281 213.070312 65.152344 220.226562 66.109375 228.058594 L 73.46875 288.261719 C 73.929688 292.058594 75.84375 295.445312 78.851562 297.800781 C 81.390625 299.789062 84.457031 300.839844 87.628906 300.839844 C 88.210938 300.839844 88.804688 300.800781 89.394531 300.730469 L 102.527344 299.121094 C 106.316406 298.65625 109.699219 296.742188 112.050781 293.730469 C 113.785156 291.507812 114.800781 288.886719 115.03125 286.144531 C 127.269531 285.8125 140.464844 286.285156 150.855469 290.167969 C 151.335938 290.363281 151.828125 290.554688 152.269531 290.726562 L 152.632812 290.871094 C 152.75 290.917969 152.871094 290.964844 152.984375 291.015625 C 153.089844 291.058594 153.199219 291.101562 153.304688 291.136719 C 158.175781 293.039062 163.351562 294.925781 169.128906 296.898438 C 182.78125 301.5625 193.714844 303.6875 204.835938 303.683594 C 207.722656 303.683594 210.617188 303.539062 213.578125 303.261719 C 228.671875 301.84375 252.714844 289.296875 285.035156 265.976562 C 312.773438 245.964844 326.203125 231.40625 327.308594 220.15625 C 327.730469 215.816406 326.414062 211.96875 323.394531 208.722656 "/>
</g>
<path style=" stroke:none;fill-rule:nonzero;fill:rgb(31.369019%,31.369019%,31.369019%);fill-opacity:1;" d="M 92.726562 234.046875 C 92.40625 231.421875 90.019531 229.554688 87.394531 229.875 C 84.773438 230.199219 82.910156 232.585938 83.230469 235.210938 L 83.394531 236.554688 C 83.691406 238.980469 85.753906 240.761719 88.136719 240.761719 C 88.332031 240.761719 88.527344 240.75 88.726562 240.726562 C 91.347656 240.402344 93.210938 238.015625 92.890625 235.390625 L 92.726562 234.046875 "/>
<path style=" stroke:none;fill-rule:nonzero;fill:rgb(31.369019%,31.369019%,31.369019%);fill-opacity:1;" d="M 91.714844 131.386719 C 92.769531 131.386719 93.832031 131.035156 94.71875 130.320312 L 194.136719 49.859375 C 196.742188 47.753906 200.519531 47.753906 203.121094 49.859375 L 240.785156 80.339844 C 242.707031 81.894531 245.285156 82.199219 247.515625 81.132812 C 249.742188 80.066406 251.125 77.867188 251.125 75.394531 L 251.125 58.390625 L 270.191406 58.390625 L 270.191406 100.632812 C 270.191406 102.554688 271.042969 104.347656 272.53125 105.5625 L 302.855469 130.308594 C 304.90625 131.976562 307.917969 131.667969 309.585938 129.621094 C 311.253906 127.570312 310.949219 124.554688 308.902344 122.882812 L 279.757812 99.105469 L 279.757812 57.484375 C 279.757812 52.703125 275.875 48.8125 271.097656 48.8125 L 250.222656 48.8125 C 245.445312 48.8125 241.5625 52.703125 241.5625 57.484375 L 241.5625 68.652344 L 209.132812 42.410156 C 203.046875 37.484375 194.210938 37.484375 188.125 42.410156 L 88.707031 122.871094 C 86.652344 124.53125 86.332031 127.546875 87.992188 129.605469 C 88.9375 130.777344 90.320312 131.386719 91.714844 131.386719 "/>
</g>
</svg>
